Coordinates
version=1
nRows=18
nColumns=28
inDegrees=yes

Units are S.I. units (second, meters, Newtons, ...)
If the header above contains a line with 'inDegrees', this indicates whether rotational values are in degrees (yes) or radians (no).

endheader
time	pelvis_tilt	pelvis_list	pelvis_rotation	pelvis_tx	pelvis_ty	pelvis_tz	hip_flexion_r	hip_adduction_r	hip_rotation_r	knee_angle_r	knee_rotation_r	knee_adduction_r	ankle_angle_r	subtalar_angle_r	mtp_angle_r	hip_flexion_l	hip_adduction_l	hip_rotation_l	knee_angle_l	knee_rotation_l	knee_adduction_l	ankle_angle_l	subtalar_angle_l	mtp_angle_l	lumbar_extension	lumbar_bending	lumbar_rotation
      0.58000000	     10.18157110	      9.13560904	    -90.20659448	     -0.20534125	      0.95754739	     -0.10094281	     36.34444635	    -10.24871394	     17.91628435	    -20.39890561	     -6.33625286	      1.85609150	      4.40793834	     -5.19654297	      2.66092771	      8.57917449	     12.20476434	     14.37705828	    -17.42162562	      0.49336822	     -4.38072944	     25.11343310	     -0.95125095	     -3.33684835	      0.00000000	      0.00000000	      0.00000000
      0.59000000	     10.14706506	      9.31865471	    -90.15543356	     -0.20628754	      0.95614360	     -0.09060647	     35.86668605	    -10.21876788	     18.28374493	    -16.66781103	     -7.39561460	      1.30787686	      5.04859370	     -3.04792077	      2.52358785	      8.17040859	     12.09251959	     14.34271046	    -17.57790435	      0.37366024	     -4.46313235	     25.54968875	     -0.92117138	     -3.35218170	      0.00000000	      0.00000000	      0.00000000
      0.60000000	      9.79458068	      9.77402848	    -90.12987999	     -0.20814237	      0.95455656	     -0.07994326	     35.33322316	     -9.83597068	     18.46512423	    -12.46727227	     -8.36640085	      0.72926772	      4.94888888	     -1.81558260	      2.49902065	      8.08052601	     11.45504235	     14.01179580	    -17.75806625	      0.08119886	     -4.73741014	     26.10514380	     -0.71735486	     -3.35839554	      0.00000000	      0.00000000	      0.00000000
      0.61000000	      9.42376561	      9.86285214	    -90.06658999	     -0.20959801	      0.95347214	     -0.06888730	     34.37837225	     -9.55080226	     18.54722012	     -8.56110455	     -9.43518516	      0.22918877	      5.64084682	      1.00247310	      2.00602765	      7.52270503	     10.87662302	     13.88017391	    -17.87502317	     -0.35059335	     -4.98038741	     26.48163917	     -0.97319972	     -3.39390692	      0.00000000	      0.00000000	      0.00000000
      0.62000000	      9.26398986	     10.20898246	    -89.91538344	     -0.21076783	      0.95178631	     -0.05776544	     33.80386899	     -9.53698297	     18.70964892	     -4.96554877	    -10.62323278	     -0.15771042	      5.61970348	      1.27740659	      2.08602361	      7.20987112	     10.60563318	     14.27703344	    -17.94516299	     -0.19118490	     -5.20218401	     26.82517011	     -1.13932068	     -3.40062767	      0.00000000	      0.00000000	      0.00000000
      0.63000000	      9.08246493	     10.12528494	    -89.55169734	     -0.21127977	      0.95074837	     -0.04649528	     32.75723860	     -9.70334929	     18.32000196	     -1.86723980	    -11.39522926	     -0.39526459	      5.90903697	      2.31017235	      2.53950501	      6.49723735	     10.42783799	     14.47824609	    -18.25413360	     -0.09719421	     -5.24277754	     27.10037456	     -0.86236164	     -3.37863007	      0.00000000	      0.00000000	      0.00000000
      0.64000000	      9.08297399	     10.05636862	    -89.15391998	     -0.21209448	      0.94946103	     -0.03466202	     32.19100490	     -9.73899638	     17.82176463	     -0.06854499	    -12.65180295	     -0.90065272	      6.94414537	      4.88668149	      2.40628093	      5.71391325	     10.38629216	     14.67523556	    -18.45997282	     -0.32743578	     -5.23649609	     27.30731508	     -0.97966090	     -3.27859981	      0.00000000	      0.00000000	      0.00000000
      0.65000000	      9.05032141	     10.10358733	    -88.92704616	     -0.21241692	      0.94813382	     -0.02306347	     32.02620029	     -9.82718352	     17.30726927	      0.97273095	    -13.52116860	     -0.83298390	      7.14506933	      5.42598477	      2.39721770	      5.13005934	     10.36371156	     14.83110901	    -18.72860141	     -0.18141399	     -5.20999763	     27.35853227	     -0.63068440	     -3.06728300	      0.00000000	      0.00000000	      0.00000000
      0.66000000	      9.23536350	     10.11602987	    -88.81583704	     -0.21312628	      0.94686948	     -0.01174490	     32.36864521	     -9.91884080	     16.86878139	      0.55762239	    -13.97065406	     -0.60381541	      7.45562381	      5.36473167	      2.39262054	      4.56218666	     10.56619212	     15.01818978	    -19.08915081	     -0.01874927	     -5.16062809	     27.25392309	     -0.53359021	     -2.96663387	      0.00000000	      0.00000000	      0.00000000
      0.67000000	      9.10755549	     10.11065526	    -88.48975616	     -0.21343521	      0.94573263	      0.00037954	     32.68978627	     -9.80221363	     15.94511206	     -0.44297633	    -14.03481881	     -0.24400256	      7.88853633	      5.05480726	      2.47489791	      3.93450682	     10.36410718	     15.04558832	    -19.44177335	     -0.34348903	     -5.24142773	     27.31725754	     -0.56753033	     -2.78780656	      0.00000000	      0.00000000	      0.00000000
      0.68000000	      9.27950091	      9.97862666	    -88.24442193	     -0.21442485	      0.94460123	      0.01265925	     33.29011555	     -9.77025398	     15.28794286	     -2.56546846	    -13.92106435	      0.08607197	      8.38779519	      4.14375129	      2.71310787	      3.23889993	     10.44826125	     14.90617285	    -19.92543048	     -0.69502945	     -5.14878786	     27.15454561	     -0.28053597	     -2.66957172	      0.00000000	      0.00000000	      0.00000000
      0.69000000	      9.26578452	     10.01441072	    -87.90553169	     -0.21528842	      0.94335278	      0.02477663	     33.98933388	     -9.66159880	     14.60308512	     -4.96988105	    -13.13079322	      0.56312920	      8.71844644	      2.59938221	      3.26699152	      2.82217042	     10.31332663	     15.04940241	    -20.50504669	     -0.50138193	     -5.24143472	     27.12369095	      0.29537056	     -2.20755031	      0.00000000	      0.00000000	      0.00000000
      0.70000000	      9.21014450	      9.91080389	    -87.38722365	     -0.21606472	      0.94225104	      0.03786265	     34.48479803	     -9.56523271	     13.58182537	     -7.68418726	    -11.98933883	      0.95190333	      8.82064163	      0.98423148	      3.63825001	      2.22423426	     10.11392267	     14.97442193	    -21.20088773	     -0.85923417	     -5.22036666	     26.96870675	      0.60900132	     -1.70408189	      0.00000000	      0.00000000	      0.00000000
      0.71000000	      9.31668871	      9.85913183	    -87.23296292	     -0.21691267	      0.94080239	      0.05056853	     34.98702739	     -9.47377933	     13.46831742	    -10.05335689	    -11.32168164	      1.34732220	      8.63278019	     -0.48170783	      3.63723394	      1.77963846	     10.12560504	     14.89351133	    -21.98060512	     -0.59642472	     -5.25401422	     26.76877511	      1.36408595	     -1.16250573	      0.00000000	      0.00000000	      0.00000000
      0.72000000	      9.33321341	      9.91017728	    -86.68795906	     -0.21704631	      0.93938959	      0.06327984	     35.27150263	     -9.58882983	     13.17692025	    -11.92374996	    -10.99925457	      1.75202563	      8.45805256	     -1.65469326	      3.64042792	      1.65803457	     10.10289899	     14.80404387	    -23.23981789	     -0.32896154	     -5.27092816	     26.48748254	      2.19180216	     -0.71550972	      0.00000000	      0.00000000	      0.00000000
      0.73000000	      9.03420357	     10.16053798	    -86.13980837	     -0.21691319	      0.93812662	      0.07626402	     35.42481532	     -9.35976117	     12.87009545	    -12.99418092	    -10.81914284	      1.81530485	      7.70761871	     -2.47702919	      3.66579170	      1.81966545	      9.75896532	     14.82157651	    -24.48119129	     -0.64735334	     -5.34185808	     25.98434671	      2.26231138	     -0.04162213	      0.00000000	      0.00000000	      0.00000000
      0.74000000	      8.74374326	     10.45828768	    -85.69852242	     -0.21662562	      0.93711551	      0.08887830	     35.48577147	     -9.05416902	     13.02551777	    -13.62863360	    -10.40875947	      1.68051020	      6.22523122	     -3.60078401	      3.80941756	      2.23119348	      9.52556548	     14.80750377	    -26.02940093	     -0.66441057	     -5.34322315	     25.30184882	      2.50816935	      0.63946368	      0.00000000	      0.00000000	      0.00000000
      0.75000000	      8.23113166	     10.82524274	    -85.42719983	     -0.21671891	      0.93641708	      0.10105376	     35.46632836	     -8.43685513	     13.56283591	    -13.82478563	     -9.37435596	      1.51551953	      3.50873848	     -6.63445425	      4.19843656	      2.96527966	      9.05302400	     14.69911579	    -27.83427384	     -0.62811542	     -5.37757871	     24.60112734	      2.92870003	      1.66118230	      0.00000000	      0.00000000	      0.00000000
